<svg width="33" height="18" viewBox="0 0 33 18" fill="none" xmlns="http://www.w3.org/2000/svg">
<path d="M0.707227 10.2H1.95879L3.28066 13.425H3.33691L4.65879 10.2H5.91035V15H4.92598V11.8758H4.88613L3.64395 14.9766H2.97363L1.73145 11.8641H1.6916V15H0.707227V10.2ZM7.34414 16.35C7.21758 16.35 7.09883 16.3398 6.98789 16.3195C6.87852 16.3008 6.78789 16.2766 6.71602 16.2469L6.94102 15.5016C7.0582 15.5375 7.16367 15.557 7.25742 15.5602C7.35273 15.5633 7.43477 15.5414 7.50352 15.4945C7.57383 15.4477 7.63086 15.368 7.67461 15.2555L7.7332 15.1031L6.4418 11.4H7.4918L8.23711 14.0437H8.27461L9.02695 11.4H10.084L8.68477 15.3891C8.61758 15.5828 8.52617 15.7516 8.41055 15.8953C8.29648 16.0406 8.15195 16.1523 7.97695 16.2305C7.80195 16.3102 7.59102 16.35 7.34414 16.35ZM10.6137 15V10.2H12.5355C12.8887 10.2 13.1832 10.2523 13.4191 10.357C13.6551 10.4617 13.8324 10.607 13.9512 10.793C14.0699 10.9773 14.1293 11.1898 14.1293 11.4305C14.1293 11.618 14.0918 11.7828 14.0168 11.925C13.9418 12.0656 13.8387 12.1812 13.7074 12.2719C13.5777 12.3609 13.4293 12.4242 13.2621 12.4617V12.5086C13.4449 12.5164 13.616 12.568 13.7754 12.6633C13.9363 12.7586 14.0668 12.8922 14.1668 13.0641C14.2668 13.2344 14.3168 13.4375 14.3168 13.6734C14.3168 13.9281 14.2535 14.1555 14.127 14.3555C14.002 14.5539 13.8168 14.7109 13.5715 14.8266C13.3262 14.9422 13.0238 15 12.6645 15H10.6137ZM11.6285 14.1703H12.4559C12.7387 14.1703 12.9449 14.1164 13.0746 14.0086C13.2043 13.8992 13.2691 13.7539 13.2691 13.5727C13.2691 13.4398 13.2371 13.3227 13.173 13.2211C13.109 13.1195 13.0176 13.0398 12.8988 12.982C12.7816 12.9242 12.6418 12.8953 12.4793 12.8953H11.6285V14.1703ZM11.6285 12.2086H12.3809C12.5199 12.2086 12.6434 12.1844 12.7512 12.1359C12.8605 12.0859 12.9465 12.0156 13.009 11.925C13.073 11.8344 13.1051 11.7258 13.1051 11.5992C13.1051 11.4258 13.0434 11.2859 12.9199 11.1797C12.798 11.0734 12.6246 11.0203 12.3996 11.0203H11.6285V12.2086ZM14.9584 15V11.4H15.9568V15H14.9584ZM15.46 10.9359C15.3115 10.9359 15.1842 10.8867 15.0779 10.7883C14.9732 10.6883 14.9209 10.5687 14.9209 10.4297C14.9209 10.2922 14.9732 10.1742 15.0779 10.0758C15.1842 9.97578 15.3115 9.92578 15.46 9.92578C15.6084 9.92578 15.735 9.97578 15.8396 10.0758C15.9459 10.1742 15.999 10.2922 15.999 10.4297C15.999 10.5687 15.9459 10.6883 15.8396 10.7883C15.735 10.8867 15.6084 10.9359 15.46 10.9359ZM18.6715 11.4V12.15H16.5035V11.4H18.6715ZM16.9957 10.5375H17.9941V13.8937C17.9941 13.9859 18.0082 14.0578 18.0363 14.1094C18.0645 14.1594 18.1035 14.1945 18.1535 14.2148C18.2051 14.2352 18.2645 14.2453 18.3316 14.2453C18.3785 14.2453 18.4254 14.2414 18.4723 14.2336C18.5191 14.2242 18.5551 14.2172 18.5801 14.2125L18.7371 14.9555C18.6871 14.9711 18.6168 14.9891 18.5262 15.0094C18.4355 15.0313 18.3254 15.0445 18.1957 15.0492C17.9551 15.0586 17.7441 15.0266 17.5629 14.9531C17.3832 14.8797 17.2434 14.7656 17.1434 14.6109C17.0434 14.4562 16.9941 14.2609 16.9957 14.025V10.5375ZM20.9098 15.0703C20.541 15.0703 20.2238 14.9922 19.9582 14.8359C19.6941 14.6781 19.491 14.4594 19.3488 14.1797C19.2082 13.9 19.1379 13.5781 19.1379 13.2141C19.1379 12.8453 19.209 12.5219 19.3512 12.2437C19.4949 11.9641 19.6988 11.7461 19.9629 11.5898C20.227 11.432 20.541 11.3531 20.9051 11.3531C21.2191 11.3531 21.4941 11.4102 21.7301 11.5242C21.966 11.6383 22.1527 11.7984 22.2902 12.0047C22.4277 12.2109 22.5035 12.4531 22.5176 12.7312H21.5754C21.5488 12.5516 21.4785 12.407 21.3645 12.2977C21.252 12.1867 21.1043 12.1312 20.9215 12.1312C20.7668 12.1312 20.6316 12.1734 20.516 12.2578C20.402 12.3406 20.3129 12.4617 20.2488 12.6211C20.1848 12.7805 20.1527 12.9734 20.1527 13.2C20.1527 13.4297 20.184 13.625 20.2465 13.7859C20.3105 13.9469 20.4004 14.0695 20.516 14.1539C20.6316 14.2383 20.7668 14.2805 20.9215 14.2805C21.0355 14.2805 21.1379 14.257 21.2285 14.2102C21.3207 14.1633 21.3965 14.0953 21.4559 14.0062C21.5168 13.9156 21.5566 13.807 21.5754 13.6805H22.5176C22.502 13.9555 22.427 14.1977 22.2926 14.407C22.1598 14.6148 21.9762 14.7773 21.7418 14.8945C21.5074 15.0117 21.2301 15.0703 20.9098 15.0703ZM24.7834 15.0703C24.4193 15.0703 24.1045 14.993 23.8389 14.8383C23.5748 14.682 23.3709 14.4648 23.2271 14.1867C23.0834 13.907 23.0115 13.5828 23.0115 13.2141C23.0115 12.8422 23.0834 12.5172 23.2271 12.2391C23.3709 11.9594 23.5748 11.7422 23.8389 11.5875C24.1045 11.4312 24.4193 11.3531 24.7834 11.3531C25.1475 11.3531 25.4615 11.4312 25.7256 11.5875C25.9912 11.7422 26.1959 11.9594 26.3397 12.2391C26.4834 12.5172 26.5553 12.8422 26.5553 13.2141C26.5553 13.5828 26.4834 13.907 26.3397 14.1867C26.1959 14.4648 25.9912 14.682 25.7256 14.8383C25.4615 14.993 25.1475 15.0703 24.7834 15.0703ZM24.7881 14.2969C24.9537 14.2969 25.092 14.25 25.2029 14.1562C25.3139 14.0609 25.3975 13.9312 25.4537 13.7672C25.5115 13.6031 25.5404 13.4164 25.5404 13.207C25.5404 12.9977 25.5115 12.8109 25.4537 12.6469C25.3975 12.4828 25.3139 12.3531 25.2029 12.2578C25.092 12.1625 24.9537 12.1148 24.7881 12.1148C24.6209 12.1148 24.4803 12.1625 24.3662 12.2578C24.2537 12.3531 24.1686 12.4828 24.1107 12.6469C24.0545 12.8109 24.0264 12.9977 24.0264 13.207C24.0264 13.4164 24.0545 13.6031 24.1107 13.7672C24.1686 13.9312 24.2537 14.0609 24.3662 14.1562C24.4803 14.25 24.6209 14.2969 24.7881 14.2969ZM27.2045 15V11.4H28.2029V15H27.2045ZM27.7061 10.9359C27.5576 10.9359 27.4303 10.8867 27.324 10.7883C27.2193 10.6883 27.167 10.5687 27.167 10.4297C27.167 10.2922 27.2193 10.1742 27.324 10.0758C27.4303 9.97578 27.5576 9.92578 27.7061 9.92578C27.8545 9.92578 27.9811 9.97578 28.0857 10.0758C28.192 10.1742 28.2451 10.2922 28.2451 10.4297C28.2451 10.5687 28.192 10.6883 28.0857 10.7883C27.9811 10.8867 27.8545 10.9359 27.7061 10.9359ZM30.0012 12.9187V15H29.0027V11.4H29.9543V12.0352H29.9965C30.0762 11.8258 30.2098 11.6602 30.3973 11.5383C30.5848 11.4148 30.8121 11.3531 31.0793 11.3531C31.3293 11.3531 31.5473 11.4078 31.7332 11.5172C31.9191 11.6266 32.0637 11.7828 32.1668 11.9859C32.2699 12.1875 32.3215 12.4281 32.3215 12.7078V15H31.323V12.8859C31.3246 12.6656 31.2684 12.4937 31.1543 12.3703C31.0402 12.2453 30.8832 12.1828 30.6832 12.1828C30.5488 12.1828 30.4301 12.2117 30.327 12.2695C30.2254 12.3273 30.1457 12.4117 30.0879 12.5227C30.0316 12.632 30.0027 12.7641 30.0012 12.9187Z" fill="#7c3aed"/>
<g clip-path="url(#clip0_1203_1087)">
<path d="M13.704 1.72803H17.224C18.824 1.72803 18.824 3.96803 17.224 3.96803H15.304" stroke="#7c3aed" stroke-width="1.28" stroke-linecap="round" stroke-linejoin="round"/>
<path d="M15.304 3.96802H17.224C18.824 3.96802 18.824 6.20802 17.224 6.20802H13.704" stroke="#7c3aed" stroke-width="1.28" stroke-linecap="round" stroke-linejoin="round"/>
<path d="M14.984 7.16807V0.768066" stroke="#7c3aed" stroke-width="1.28" stroke-linecap="round" stroke-linejoin="round"/>
<path d="M16.9041 1.72807V0.768066" stroke="#7c3aed" stroke-width="1.28" stroke-linecap="round" stroke-linejoin="round"/>
<path d="M16.9041 7.16801V6.20801" stroke="#7c3aed" stroke-width="1.28" stroke-linecap="round" stroke-linejoin="round"/>
</g>
<defs>
<clipPath id="clip0_1203_1087">
<rect width="7" height="8" fill="white" transform="translate(13)"/>
</clipPath>
</defs>
</svg>
